<?xml version="1.0" standalone="no"?>
<!DOCTYPE svg PUBLIC "-//W3C//DTD SVG 20010904//EN"
 "http://www.w3.org/TR/2001/REC-SVG-20010904/DTD/svg10.dtd">
<svg version="1.0" xmlns="http://www.w3.org/2000/svg"
 width="728.000000pt" height="728.000000pt" viewBox="0 0 728.000000 728.000000"
 preserveAspectRatio="xMidYMid meet">
<metadata>
Created by potrace 1.14, written by Peter Selinger 2001-2017
</metadata>
<g transform="translate(0.000000,728.000000) scale(0.100000,-0.100000)"
fill="#000000" stroke="none">
<path d="M6610 7027 c-3 -2 -25 -7 -50 -11 -275 -36 -687 -250 -1025 -531
-192 -160 -548 -512 -905 -895 -86 -92 -199 -208 -209 -214 -7 -5 -515 140
-641 183 -14 5 -54 17 -90 27 -36 10 -66 19 -68 20 -2 1 7 20 19 43 26 50 28
124 5 168 -20 40 -183 206 -222 226 -16 8 -46 17 -68 20 -72 10 -112 -14 -245
-147 l-123 -123 -42 14 c-22 8 -47 16 -55 18 -11 4 -10 10 4 31 22 34 23 120
1 163 -28 54 -206 225 -248 237 -48 15 -114 8 -152 -16 -17 -10 -78 -66 -135
-124 -58 -58 -109 -102 -114 -99 -5 3 -30 11 -55 18 -26 7 -191 57 -367 110
-401 121 -381 116 -439 120 -83 5 -116 -16 -303 -204 -183 -183 -199 -207
-191 -286 7 -55 40 -99 103 -135 114 -64 132 -74 170 -95 22 -13 135 -75 250
-140 116 -65 228 -128 250 -140 22 -12 96 -53 165 -92 69 -38 150 -84 180
-100 30 -17 145 -81 255 -143 110 -62 258 -144 329 -184 l129 -71 257 -256
257 -256 -46 -50 c-25 -27 -93 -101 -151 -163 -58 -62 -116 -125 -130 -140
-14 -16 -43 -48 -65 -72 -22 -24 -74 -81 -115 -128 -41 -47 -79 -90 -85 -96
-5 -6 -35 -40 -65 -74 -30 -35 -69 -80 -86 -99 -17 -20 -73 -85 -123 -146 -51
-60 -100 -119 -109 -130 -10 -11 -82 -101 -161 -200 -79 -99 -146 -179 -150
-178 -3 0 -42 4 -86 8 -44 3 -93 8 -110 10 -16 2 -66 7 -110 10 -44 3 -93 8
-110 10 -16 2 -64 6 -105 10 -41 3 -93 8 -115 10 -22 2 -68 7 -102 10 -35 3
-91 7 -125 10 -35 3 -81 8 -103 10 -39 4 -122 12 -215 20 -25 2 -77 6 -117 10
-113 11 -156 -8 -271 -119 -131 -126 -152 -175 -116 -265 19 -48 55 -74 194
-139 208 -98 410 -194 685 -327 131 -63 180 -92 213 -126 45 -47 47 -51 33
-77 -11 -20 -22 -87 -25 -148 -3 -52 27 -134 62 -169 50 -50 100 -69 182 -68
41 1 98 8 125 17 l50 16 55 -59 c41 -43 68 -87 105 -167 27 -60 87 -188 133
-284 46 -96 97 -202 112 -235 137 -296 168 -352 202 -373 44 -28 87 -36 134
-27 29 5 60 29 140 107 145 141 159 186 129 403 -2 17 -7 64 -10 105 -3 41 -7
93 -10 115 -2 22 -7 69 -10 105 -3 36 -8 90 -11 120 -7 74 -12 130 -19 225 -3
44 -8 94 -10 111 -3 17 -7 67 -10 110 -3 44 -8 90 -10 104 -10 62 -15 196 -8
205 4 6 46 40 93 75 46 36 94 72 105 82 11 9 88 72 170 139 83 68 152 126 155
129 3 3 50 43 105 90 142 121 469 413 610 545 191 179 220 204 226 205 3 0
120 -115 260 -255 l255 -255 84 -152 c47 -83 99 -177 116 -207 17 -31 66 -119
109 -196 43 -77 88 -158 100 -180 12 -22 75 -134 140 -250 65 -115 172 -307
238 -425 186 -335 207 -368 237 -390 36 -26 78 -34 134 -26 41 6 57 20 221
182 98 98 183 190 190 208 27 65 27 116 0 206 -15 47 -29 96 -31 109 -3 14 -7
28 -9 32 -5 8 -84 264 -90 292 -5 22 -60 206 -80 267 -8 25 -15 52 -15 59 0 8
51 67 114 130 82 84 117 126 124 153 11 40 9 89 -6 129 -13 34 -189 212 -231
233 -42 22 -120 22 -161 1 -24 -12 -31 -13 -35 -3 -2 7 -11 32 -18 55 l-14 41
118 118 c66 65 126 134 135 153 21 43 21 119 1 157 -21 40 -186 208 -224 227
-62 32 -150 25 -193 -15 -19 -18 -20 -17 -49 79 -16 54 -44 145 -62 203 -18
58 -33 110 -35 115 -1 6 -28 96 -59 201 l-57 192 33 32 c19 18 101 96 183 174
458 434 692 668 850 850 155 179 299 389 400 579 163 310 230 606 175 782 -25
82 -81 143 -155 169 -46 17 -233 34 -244 23z"/>
</g>
</svg>
